<?xml version="1.0" encoding="UTF-8"?>
<svg id="Layer_1" data-name="Layer 1" xmlns="http://www.w3.org/2000/svg" viewBox="0 0 2063.97 2184.63">
  <defs>
    <style>
      .cls-1 {
        fill: #827975;
      }

      .cls-2 {
        fill: #1e1e1e;
      }

      .cls-3 {
        fill: #fffbfa;
      }

      .cls-4 {
        fill: #bc7b5b;
      }
    </style>
  </defs>
  <g>
    <path class="cls-3" d="M707.38,203.4c-4.3-10.09-9.65-22.64-9.66-40.25h0c0-17.61,5.35-30.17,9.66-40.25,4.2-9.86,7.52-17.64,5.09-26.8l-.55-1.8h-33.72l-.58,1.89c-2.4,9.07.92,16.85,5.12,26.71,4.3,10.09,9.65,22.64,9.66,40.25h0c0,17.61-5.35,30.17-9.66,40.25-4.12,9.67-7.38,17.35-5.21,26.28h35.06c2.19-8.88-1.08-16.58-5.22-26.28Z"/>
    <path class="cls-3" d="M747.47,198.03c-11.34-8.68-23.07-17.65-23.07-36.03s11.73-27.35,23.07-36.03c5.75-4.4,11.32-8.67,15.28-14.07v-17.59h-18.35c0,11.42-6.73,21.08-13.86,31.31-7.6,10.91-15.47,22.19-15.47,36.38s7.86,25.47,15.47,36.38c7.13,10.22,13.86,19.88,13.86,31.3h-5c0-9.85-6.3-18.88-12.96-28.44-7.67-11-16.37-23.47-16.37-39.24s8.7-28.24,16.37-39.24c6.67-9.56,12.97-18.6,12.97-28.45h-22.25l.13.42c2.89,10.91-.9,19.82-5.3,30.13-4.34,10.17-9.25,21.7-9.25,38.29,0,16.59,4.92,28.12,9.25,38.29,4.15,9.74,7.76,18.22,5.74,28.24h45.03v-17.58c-3.95-5.4-9.53-9.67-15.27-14.07Z"/>
    <path class="cls-3" d="M745.74,162.05c0,10.02,7.4,18.32,17.01,19.79v-39.58c-9.61,1.47-17.01,9.77-17.01,19.79Z"/>
    <path class="cls-3" d="M644.39,162.05c0-10.02-7.4-18.32-17.01-19.79v39.58c9.61-1.47,17.01-9.77,17.01-19.79Z"/>
    <path class="cls-3" d="M750.51,129.94c-10.85,8.3-21.11,16.15-21.11,32.06s10.25,23.76,21.11,32.06c4.24,3.24,8.53,6.53,12.24,10.33v-17.49c-12.38-1.5-22.01-12.07-22.01-24.86s9.63-23.35,22.01-24.86v-17.58c-3.71,3.8-8,7.09-12.24,10.33Z"/>
    <path class="cls-3" d="M639.61,194.06c10.85-8.3,21.11-16.15,21.11-32.06s-10.25-23.76-21.11-32.06c-4.24-3.24-8.53-6.53-12.24-10.33v17.58c12.38,1.5,22.01,12.07,22.01,24.86s-9.63,23.35-22.01,24.86v17.49c3.71-3.8,8-7.09,12.24-10.33Z"/>
    <path class="cls-3" d="M678.15,201.44c4.34-10.17,9.25-21.7,9.25-38.29,0-16.59-4.92-28.12-9.25-38.29-4.4-10.31-8.2-19.22-5.33-30.04l.16-.51h-22.25c0,9.85,6.3,18.89,12.97,28.45,7.67,11,16.37,23.47,16.37,39.24s-8.7,28.24-16.37,39.24c-6.67,9.56-12.96,18.59-12.96,28.44h-5c0-11.42,6.73-21.08,13.86-31.3,7.61-10.91,15.47-22.18,15.47-36.38s-7.86-25.47-15.47-36.38c-7.13-10.23-13.86-19.88-13.86-31.31h-18.35v17.59c3.95,5.4,9.53,9.67,15.28,14.07,11.34,8.68,23.07,17.65,23.07,36.03s-11.73,27.35-23.07,36.03c-5.75,4.4-11.32,8.66-15.27,14.07v17.58h45.03c-2.01-10.06,1.6-18.53,5.74-28.24Z"/>
  </g>
  <g>
    <path class="cls-3" d="M640.41,280.46c-.5,2.36-1.43,4.51-2.78,6.4-1.35,1.88-3.03,3.37-4.99,4.45-1.95,1.07-4.11,1.61-6.41,1.61-2.6,0-5.03-.72-7.23-2.13-2.22-1.42-4.01-3.38-5.32-5.81-1.31-2.44-1.98-5.16-1.98-8.09s.67-5.69,1.98-8.19c1.31-2.49,3.11-4.51,5.33-5.99,2.2-1.47,4.63-2.21,7.22-2.21,3.01,0,5.79.97,8.25,2.9,2.49,1.94,4.29,4.44,5.36,7.45l.18.5h4.91l-.31-.97c-.86-2.75-2.2-5.26-3.97-7.44-1.78-2.19-3.92-3.93-6.38-5.17-2.47-1.25-5.18-1.88-8.04-1.88-3.53,0-6.79.95-9.69,2.82-2.89,1.86-5.21,4.42-6.88,7.62-1.67,3.19-2.51,6.74-2.51,10.56s.85,7.12,2.51,10.27c1.67,3.16,4,5.7,6.91,7.56,2.92,1.87,6.17,2.81,9.66,2.81,3.07,0,5.97-.74,8.63-2.19,2.65-1.45,4.89-3.47,6.67-6.01,1.77-2.54,2.94-5.43,3.48-8.6l.15-.88h-4.61l-.12.6Z"/>
    <rect class="cls-3" x="648.78" y="255.91" width="4.73" height="41.64"/>
    <path class="cls-3" d="M662.68,270.88h19.53v5.27h-13.63c-1.92,0-3.73.49-5.38,1.45-1.64.96-2.97,2.27-3.95,3.88-.99,1.63-1.49,3.39-1.49,5.24s.5,3.74,1.48,5.39c.98,1.64,2.31,2.97,3.94,3.94,1.65.98,3.46,1.48,5.39,1.48,3.03,0,5.89-.71,8.5-2.09,1.96-1.04,3.67-2.38,5.13-4v6.1h4.74v-31.45h-24.26v4.79ZM681.89,280.95c-.12,2-.71,3.88-1.75,5.6-1.18,1.93-2.8,3.48-4.81,4.59-2.01,1.11-4.28,1.67-6.74,1.67-1.76,0-3.18-.56-4.32-1.72-1.14-1.16-1.7-2.59-1.7-4.36,0-1.6.56-2.94,1.72-4.08,1.16-1.15,2.57-1.7,4.29-1.7h13.31Z"/>
    <path class="cls-3" d="M716.12,270.53c-1.1-1.15-2.36-2.11-3.77-2.88-2.04-1.11-4.23-1.68-6.5-1.68-2.65,0-5.13.72-7.38,2.15-2.24,1.42-4.03,3.37-5.32,5.79-1.29,2.41-1.95,5.07-1.95,7.9s.66,5.48,1.95,7.87c1.29,2.4,3.08,4.34,5.32,5.76,2.25,1.43,4.73,2.15,7.38,2.15,2.27,0,4.46-.57,6.5-1.68,1.41-.77,2.67-1.74,3.77-2.88v4.44h4.67v-41.58h-4.67v14.63ZM714.5,276.21c.91,1.7,1.38,3.58,1.38,5.61s-.46,3.91-1.38,5.61c-.91,1.69-2.16,3.05-3.7,4.04-1.53.97-3.2,1.47-4.96,1.47s-3.48-.49-4.98-1.47c-1.52-.98-2.76-2.34-3.67-4.04-.91-1.7-1.38-3.59-1.38-5.61s.46-3.91,1.38-5.61c.91-1.7,2.15-3.07,3.68-4.07,1.5-.99,3.18-1.49,4.98-1.49s3.43.5,4.95,1.5c1.54,1.01,2.79,2.37,3.7,4.07Z"/>
    <polygon class="cls-3" points="774.69 281.52 787.85 266.09 781.63 266.09 771.55 277.85 761.47 266.09 755.18 266.09 768.4 281.52 754.85 297.46 760.99 297.55 771.54 285.13 782.04 297.54 788.26 297.54 774.69 281.52"/>
    <path class="cls-3" d="M749.14,267.54c-1.65-.98-3.46-1.48-5.39-1.48-3.03,0-5.89.71-8.5,2.09-2.74,1.45-4.47,2.88-6.17,5.08-2.15,2.78-3.41,6.33-3.54,9.99-.14,3.99-.15,13.44-.15,13.54v.75s24.26,0,24.26,0v-4.79h-19.53v-5.27h13.63c1.92,0,3.73-.49,5.38-1.45,1.64-.96,2.97-2.27,3.95-3.88.99-1.63,1.49-3.39,1.49-5.24s-.5-3.74-1.48-5.39c-.98-1.64-2.31-2.97-3.94-3.94ZM749.78,276.87c0,1.6-.56,2.94-1.72,4.08-1.16,1.15-2.57,1.7-4.29,1.7h-13.31c.12-2,.71-3.88,1.75-5.6,1.18-1.93,2.8-3.48,4.81-4.59,2.01-1.11,4.28-1.67,6.74-1.67,1.76,0,3.18.56,4.32,1.72,1.14,1.16,1.7,2.59,1.7,4.36Z"/>
  </g>
  <g>
    <path class="cls-1" d="M484.1,203.4c-4.3-10.09-9.65-22.64-9.66-40.25h0c0-17.61,5.35-30.17,9.66-40.25,4.2-9.86,7.52-17.64,5.09-26.8l-.55-1.8h-33.72l-.58,1.89c-2.4,9.07.92,16.85,5.12,26.71,4.3,10.09,9.65,22.64,9.66,40.25h0c0,17.61-5.35,30.17-9.66,40.25-4.12,9.67-7.38,17.35-5.21,26.28h35.06c2.19-8.88-1.08-16.58-5.22-26.28Z"/>
    <path class="cls-1" d="M524.19,198.03c-11.34-8.68-23.07-17.65-23.07-36.03s11.73-27.35,23.07-36.03c5.75-4.4,11.32-8.67,15.28-14.07v-17.59h-18.35c0,11.42-6.73,21.08-13.86,31.31-7.6,10.91-15.47,22.19-15.47,36.38s7.86,25.47,15.47,36.38c7.13,10.22,13.86,19.88,13.86,31.3h-5c0-9.85-6.3-18.88-12.96-28.44-7.67-11-16.37-23.47-16.37-39.24s8.7-28.24,16.37-39.24c6.67-9.56,12.97-18.6,12.97-28.45h-22.25l.13.42c2.89,10.91-.9,19.82-5.3,30.13-4.34,10.17-9.25,21.7-9.25,38.29,0,16.59,4.92,28.12,9.25,38.29,4.15,9.74,7.76,18.22,5.74,28.24h45.03v-17.58c-3.95-5.4-9.53-9.67-15.27-14.07Z"/>
    <path class="cls-1" d="M522.46,162.05c0,10.02,7.4,18.32,17.01,19.79v-39.58c-9.61,1.47-17.01,9.77-17.01,19.79Z"/>
    <path class="cls-1" d="M421.1,162.05c0-10.02-7.4-18.32-17.01-19.79v39.58c9.61-1.47,17.01-9.77,17.01-19.79Z"/>
    <path class="cls-1" d="M527.23,129.94c-10.85,8.3-21.11,16.15-21.11,32.06s10.25,23.76,21.11,32.06c4.24,3.24,8.53,6.53,12.24,10.33v-17.49c-12.38-1.5-22.01-12.07-22.01-24.86s9.63-23.35,22.01-24.86v-17.58c-3.71,3.8-8,7.09-12.24,10.33Z"/>
    <path class="cls-1" d="M416.33,194.06c10.85-8.3,21.11-16.15,21.11-32.06s-10.25-23.76-21.11-32.06c-4.24-3.24-8.53-6.53-12.24-10.33v17.58c12.38,1.5,22.01,12.07,22.01,24.86s-9.63,23.35-22.01,24.86v17.49c3.71-3.8,8-7.09,12.24-10.33Z"/>
    <path class="cls-1" d="M454.87,201.44c4.34-10.17,9.25-21.7,9.25-38.29,0-16.59-4.92-28.12-9.25-38.29-4.4-10.31-8.2-19.22-5.33-30.04l.16-.51h-22.25c0,9.85,6.3,18.89,12.97,28.45,7.67,11,16.37,23.47,16.37,39.24s-8.7,28.24-16.37,39.24c-6.67,9.56-12.96,18.59-12.96,28.44h-5c0-11.42,6.73-21.08,13.86-31.3,7.61-10.91,15.47-22.18,15.47-36.38s-7.86-25.47-15.47-36.38c-7.13-10.23-13.86-19.88-13.86-31.31h-18.35v17.59c3.95,5.4,9.53,9.67,15.28,14.07,11.34,8.68,23.07,17.65,23.07,36.03s-11.73,27.35-23.07,36.03c-5.75,4.4-11.32,8.66-15.27,14.07v17.58h45.03c-2.01-10.06,1.6-18.53,5.74-28.24Z"/>
  </g>
  <g>
    <path class="cls-1" d="M417.13,280.46c-.5,2.36-1.43,4.51-2.78,6.4-1.35,1.88-3.03,3.37-4.99,4.45-1.95,1.07-4.11,1.61-6.41,1.61-2.6,0-5.03-.72-7.23-2.13-2.22-1.42-4.01-3.38-5.32-5.81-1.31-2.44-1.98-5.16-1.98-8.09s.67-5.69,1.98-8.19c1.31-2.49,3.11-4.51,5.33-5.99,2.2-1.47,4.63-2.21,7.22-2.21,3.01,0,5.79.97,8.25,2.9,2.49,1.94,4.29,4.44,5.36,7.45l.18.5h4.91l-.31-.97c-.86-2.75-2.2-5.26-3.97-7.44-1.78-2.19-3.92-3.93-6.38-5.17-2.47-1.25-5.18-1.88-8.04-1.88-3.53,0-6.79.95-9.69,2.82-2.89,1.86-5.21,4.42-6.88,7.62-1.67,3.19-2.51,6.74-2.51,10.56s.85,7.12,2.51,10.27c1.67,3.16,4,5.7,6.91,7.56,2.92,1.87,6.17,2.81,9.66,2.81,3.07,0,5.97-.74,8.63-2.19,2.65-1.45,4.89-3.47,6.67-6.01,1.77-2.54,2.94-5.43,3.48-8.6l.15-.88h-4.61l-.12.6Z"/>
    <rect class="cls-1" x="425.5" y="255.91" width="4.73" height="41.64"/>
    <path class="cls-1" d="M439.4,270.88h19.53v5.27h-13.63c-1.92,0-3.73.49-5.38,1.45-1.64.96-2.97,2.27-3.95,3.88-.99,1.63-1.49,3.39-1.49,5.24s.5,3.74,1.48,5.39c.98,1.64,2.31,2.97,3.94,3.94,1.65.98,3.46,1.48,5.39,1.48,3.03,0,5.89-.71,8.5-2.09,1.96-1.04,3.67-2.38,5.13-4v6.1h4.74v-31.45h-24.26v4.79ZM458.61,280.95c-.12,2-.71,3.88-1.75,5.6-1.18,1.93-2.8,3.48-4.81,4.59-2.01,1.11-4.28,1.67-6.74,1.67-1.76,0-3.18-.56-4.32-1.72-1.14-1.16-1.7-2.59-1.7-4.36,0-1.6.56-2.94,1.72-4.08,1.16-1.15,2.57-1.7,4.29-1.7h13.31Z"/>
    <path class="cls-1" d="M492.84,270.53c-1.1-1.15-2.36-2.11-3.77-2.88-2.04-1.11-4.23-1.68-6.5-1.68-2.65,0-5.13.72-7.38,2.15-2.24,1.42-4.03,3.37-5.32,5.79-1.29,2.41-1.95,5.07-1.95,7.9s.66,5.48,1.95,7.87c1.29,2.4,3.08,4.34,5.32,5.76,2.25,1.43,4.73,2.15,7.38,2.15,2.27,0,4.46-.57,6.5-1.68,1.41-.77,2.67-1.74,3.77-2.88v4.44h4.67v-41.58h-4.67v14.63ZM491.22,276.21c.91,1.7,1.38,3.58,1.38,5.61s-.46,3.91-1.38,5.61c-.91,1.69-2.16,3.05-3.7,4.04-1.53.97-3.2,1.47-4.96,1.47s-3.48-.49-4.98-1.47c-1.52-.98-2.76-2.34-3.67-4.04-.91-1.7-1.38-3.59-1.38-5.61s.46-3.91,1.38-5.61c.91-1.7,2.15-3.07,3.68-4.07,1.5-.99,3.18-1.49,4.98-1.49s3.43.5,4.95,1.5c1.54,1.01,2.79,2.37,3.7,4.07Z"/>
    <polygon class="cls-1" points="551.41 281.52 564.57 266.09 558.34 266.09 548.27 277.85 538.19 266.09 531.9 266.09 545.12 281.52 531.57 297.46 537.7 297.55 548.26 285.13 558.76 297.54 564.98 297.54 551.41 281.52"/>
    <path class="cls-1" d="M525.86,267.54c-1.65-.98-3.46-1.48-5.39-1.48-3.03,0-5.89.71-8.5,2.09-2.74,1.45-4.47,2.88-6.17,5.08-2.15,2.78-3.41,6.33-3.54,9.99-.14,3.99-.15,13.44-.15,13.54v.75s24.26,0,24.26,0v-4.79h-19.53v-5.27h13.63c1.92,0,3.73-.49,5.38-1.45,1.64-.96,2.97-2.27,3.95-3.88.99-1.63,1.49-3.39,1.49-5.24s-.5-3.74-1.48-5.39c-.98-1.64-2.31-2.97-3.94-3.94ZM526.5,276.87c0,1.6-.56,2.94-1.72,4.08-1.16,1.15-2.57,1.7-4.29,1.7h-13.31c.12-2,.71-3.88,1.75-5.6,1.18-1.93,2.8-3.48,4.81-4.59,2.01-1.11,4.28-1.67,6.74-1.67,1.76,0,3.18.56,4.32,1.72,1.14,1.16,1.7,2.59,1.7,4.36Z"/>
  </g>
  <g>
    <path class="cls-2" d="M268.2,203.4c-4.3-10.09-9.65-22.64-9.66-40.25h0c0-17.61,5.35-30.17,9.66-40.25,4.2-9.86,7.52-17.64,5.09-26.8l-.55-1.8h-33.72l-.58,1.89c-2.4,9.07.92,16.85,5.12,26.71,4.3,10.09,9.65,22.64,9.66,40.25h0c0,17.61-5.35,30.17-9.66,40.25-4.12,9.67-7.38,17.35-5.21,26.28h35.06c2.19-8.88-1.08-16.58-5.22-26.28Z"/>
    <path class="cls-2" d="M308.3,198.03c-11.34-8.68-23.07-17.65-23.07-36.03s11.73-27.35,23.07-36.03c5.75-4.4,11.32-8.67,15.28-14.07v-17.59h-18.35c0,11.42-6.73,21.08-13.86,31.31-7.6,10.91-15.47,22.19-15.47,36.38s7.86,25.47,15.47,36.38c7.13,10.22,13.86,19.88,13.86,31.3h-5c0-9.85-6.3-18.88-12.96-28.44-7.67-11-16.37-23.47-16.37-39.24s8.7-28.24,16.37-39.24c6.67-9.56,12.97-18.6,12.97-28.45h-22.25l.13.42c2.89,10.91-.9,19.82-5.3,30.13-4.34,10.17-9.25,21.7-9.25,38.29,0,16.59,4.92,28.12,9.25,38.29,4.15,9.74,7.76,18.22,5.74,28.24h45.03v-17.58c-3.95-5.4-9.53-9.67-15.27-14.07Z"/>
    <path class="cls-2" d="M306.56,162.05c0,10.02,7.4,18.32,17.01,19.79v-39.58c-9.61,1.47-17.01,9.77-17.01,19.79Z"/>
    <path class="cls-2" d="M205.21,162.05c0-10.02-7.4-18.32-17.01-19.79v39.58c9.61-1.47,17.01-9.77,17.01-19.79Z"/>
    <path class="cls-2" d="M311.34,129.94c-10.85,8.3-21.11,16.15-21.11,32.06s10.25,23.76,21.11,32.06c4.24,3.24,8.53,6.53,12.24,10.33v-17.49c-12.38-1.5-22.01-12.07-22.01-24.86s9.63-23.35,22.01-24.86v-17.58c-3.71,3.8-8,7.09-12.24,10.33Z"/>
    <path class="cls-2" d="M200.44,194.06c10.85-8.3,21.11-16.15,21.11-32.06s-10.25-23.76-21.11-32.06c-4.24-3.24-8.53-6.53-12.24-10.33v17.58c12.38,1.5,22.01,12.07,22.01,24.86s-9.63,23.35-22.01,24.86v17.49c3.71-3.8,8-7.09,12.24-10.33Z"/>
    <path class="cls-2" d="M238.97,201.44c4.34-10.17,9.25-21.7,9.25-38.29,0-16.59-4.92-28.12-9.25-38.29-4.4-10.31-8.2-19.22-5.33-30.04l.16-.51h-22.25c0,9.85,6.3,18.89,12.97,28.45,7.67,11,16.37,23.47,16.37,39.24s-8.7,28.24-16.37,39.24c-6.67,9.56-12.96,18.59-12.96,28.44h-5c0-11.42,6.73-21.08,13.86-31.3,7.61-10.91,15.47-22.18,15.47-36.38s-7.86-25.47-15.47-36.38c-7.13-10.23-13.86-19.88-13.86-31.31h-18.35v17.59c3.95,5.4,9.53,9.67,15.28,14.07,11.34,8.68,23.07,17.65,23.07,36.03s-11.73,27.35-23.07,36.03c-5.75,4.4-11.32,8.66-15.27,14.07v17.58h45.03c-2.01-10.06,1.6-18.53,5.74-28.24Z"/>
  </g>
  <g>
    <path class="cls-2" d="M201.24,280.46c-.5,2.36-1.43,4.51-2.78,6.4-1.35,1.88-3.03,3.37-4.99,4.45-1.95,1.07-4.11,1.61-6.41,1.61-2.6,0-5.03-.72-7.23-2.13-2.22-1.42-4.01-3.38-5.32-5.81-1.31-2.44-1.98-5.16-1.98-8.09s.67-5.69,1.98-8.19c1.31-2.49,3.11-4.51,5.33-5.99,2.2-1.47,4.63-2.21,7.22-2.21,3.01,0,5.79.97,8.25,2.9,2.49,1.94,4.29,4.44,5.36,7.45l.18.5h4.91l-.31-.97c-.86-2.75-2.2-5.26-3.97-7.44-1.78-2.19-3.92-3.93-6.38-5.17-2.47-1.25-5.18-1.88-8.04-1.88-3.53,0-6.79.95-9.69,2.82-2.89,1.86-5.21,4.42-6.88,7.62-1.67,3.19-2.51,6.74-2.51,10.56s.85,7.12,2.51,10.27c1.67,3.16,4,5.7,6.91,7.56,2.92,1.87,6.17,2.81,9.66,2.81,3.07,0,5.97-.74,8.63-2.19,2.65-1.45,4.89-3.47,6.67-6.01,1.77-2.54,2.94-5.43,3.48-8.6l.15-.88h-4.61l-.12.6Z"/>
    <rect class="cls-2" x="209.61" y="255.91" width="4.73" height="41.64"/>
    <path class="cls-2" d="M223.51,270.88h19.53v5.27h-13.63c-1.92,0-3.73.49-5.38,1.45-1.64.96-2.97,2.27-3.95,3.88-.99,1.63-1.49,3.39-1.49,5.24s.5,3.74,1.48,5.39c.98,1.64,2.31,2.97,3.94,3.94,1.65.98,3.46,1.48,5.39,1.48,3.03,0,5.89-.71,8.5-2.09,1.96-1.04,3.67-2.38,5.13-4v6.1h4.74v-31.45h-24.26v4.79ZM242.71,280.95c-.12,2-.71,3.88-1.75,5.6-1.18,1.93-2.8,3.48-4.81,4.59-2.01,1.11-4.28,1.67-6.74,1.67-1.76,0-3.18-.56-4.32-1.72-1.14-1.16-1.7-2.59-1.7-4.36,0-1.6.56-2.94,1.72-4.08,1.16-1.15,2.57-1.7,4.29-1.7h13.31Z"/>
    <path class="cls-2" d="M276.94,270.53c-1.1-1.15-2.36-2.11-3.77-2.88-2.04-1.11-4.23-1.68-6.5-1.68-2.65,0-5.13.72-7.38,2.15-2.24,1.42-4.03,3.37-5.32,5.79-1.29,2.41-1.95,5.07-1.95,7.9s.66,5.48,1.95,7.87c1.29,2.4,3.08,4.34,5.32,5.76,2.25,1.43,4.73,2.15,7.38,2.15,2.27,0,4.46-.57,6.5-1.68,1.41-.77,2.67-1.74,3.77-2.88v4.44h4.67v-41.58h-4.67v14.63ZM275.33,276.21c.91,1.7,1.38,3.58,1.38,5.61s-.46,3.91-1.38,5.61c-.91,1.69-2.16,3.05-3.7,4.04-1.53.97-3.2,1.47-4.96,1.47s-3.48-.49-4.98-1.47c-1.52-.98-2.76-2.34-3.67-4.04-.91-1.7-1.38-3.59-1.38-5.61s.46-3.91,1.38-5.61c.91-1.7,2.15-3.07,3.68-4.07,1.5-.99,3.18-1.49,4.98-1.49s3.43.5,4.95,1.5c1.54,1.01,2.79,2.37,3.7,4.07Z"/>
    <polygon class="cls-2" points="335.51 281.52 348.68 266.09 342.45 266.09 332.37 277.85 322.29 266.09 316.01 266.09 329.23 281.52 315.67 297.46 321.81 297.55 332.37 285.13 342.87 297.54 349.09 297.54 335.51 281.52"/>
    <path class="cls-2" d="M309.97,267.54c-1.65-.98-3.46-1.48-5.39-1.48-3.03,0-5.89.71-8.5,2.09-2.74,1.45-4.47,2.88-6.17,5.08-2.15,2.78-3.41,6.33-3.54,9.99-.14,3.99-.15,13.44-.15,13.54v.75s24.26,0,24.26,0v-4.79h-19.53v-5.27h13.63c1.92,0,3.73-.49,5.38-1.45,1.64-.96,2.97-2.27,3.95-3.88.99-1.63,1.49-3.39,1.49-5.24s-.5-3.74-1.48-5.39c-.98-1.64-2.31-2.97-3.94-3.94ZM310.6,276.87c0,1.6-.56,2.94-1.72,4.08-1.16,1.15-2.57,1.7-4.29,1.7h-13.31c.12-2,.71-3.88,1.75-5.6,1.18-1.93,2.8-3.48,4.81-4.59,2.01-1.11,4.28-1.67,6.74-1.67,1.76,0,3.18.56,4.32,1.72,1.14,1.16,1.7,2.59,1.7,4.36Z"/>
  </g>
  <g>
    <path class="cls-4" d="M993.91,203.4c-4.3-10.09-9.65-22.64-9.66-40.25h0c0-17.61,5.35-30.17,9.66-40.25,4.2-9.86,7.52-17.64,5.09-26.8l-.55-1.8h-33.72l-.58,1.89c-2.4,9.07.92,16.85,5.12,26.71,4.3,10.09,9.65,22.64,9.66,40.25h0c0,17.61-5.35,30.17-9.66,40.25-4.12,9.67-7.38,17.35-5.21,26.28h35.06c2.19-8.88-1.08-16.58-5.22-26.28Z"/>
    <path class="cls-4" d="M1034,198.03c-11.34-8.68-23.07-17.65-23.07-36.03s11.73-27.35,23.07-36.03c5.75-4.4,11.32-8.67,15.28-14.07v-17.59h-18.35c0,11.42-6.73,21.08-13.86,31.31-7.6,10.91-15.47,22.19-15.47,36.38s7.86,25.47,15.47,36.38c7.13,10.22,13.86,19.88,13.86,31.3h-5c0-9.85-6.3-18.88-12.96-28.44-7.67-11-16.37-23.47-16.37-39.24s8.7-28.24,16.37-39.24c6.67-9.56,12.97-18.6,12.97-28.45h-22.25l.13.42c2.89,10.91-.9,19.82-5.3,30.13-4.34,10.17-9.25,21.7-9.25,38.29,0,16.59,4.92,28.12,9.25,38.29,4.15,9.74,7.76,18.22,5.74,28.24h45.03v-17.58c-3.95-5.4-9.53-9.67-15.27-14.07Z"/>
    <path class="cls-4" d="M1032.27,162.05c0,10.02,7.4,18.32,17.01,19.79v-39.58c-9.61,1.47-17.01,9.77-17.01,19.79Z"/>
    <path class="cls-4" d="M930.92,162.05c0-10.02-7.4-18.32-17.01-19.79v39.58c9.61-1.47,17.01-9.77,17.01-19.79Z"/>
    <path class="cls-4" d="M1037.04,129.94c-10.85,8.3-21.11,16.15-21.11,32.06s10.25,23.76,21.11,32.06c4.24,3.24,8.53,6.53,12.24,10.33v-17.49c-12.38-1.5-22.01-12.07-22.01-24.86s9.63-23.35,22.01-24.86v-17.58c-3.71,3.8-8,7.09-12.24,10.33Z"/>
    <path class="cls-4" d="M926.14,194.06c10.85-8.3,21.11-16.15,21.11-32.06s-10.25-23.76-21.11-32.06c-4.24-3.24-8.53-6.53-12.24-10.33v17.58c12.38,1.5,22.01,12.07,22.01,24.86s-9.63,23.35-22.01,24.86v17.49c3.71-3.8,8-7.09,12.24-10.33Z"/>
    <path class="cls-4" d="M964.68,201.44c4.34-10.17,9.25-21.7,9.25-38.29,0-16.59-4.92-28.12-9.25-38.29-4.4-10.31-8.2-19.22-5.33-30.04l.16-.51h-22.25c0,9.85,6.3,18.89,12.97,28.45,7.67,11,16.37,23.47,16.37,39.24s-8.7,28.24-16.37,39.24c-6.67,9.56-12.96,18.59-12.96,28.44h-5c0-11.42,6.73-21.08,13.86-31.3,7.61-10.91,15.47-22.18,15.47-36.38s-7.86-25.47-15.47-36.38c-7.13-10.23-13.86-19.88-13.86-31.31h-18.35v17.59c3.95,5.4,9.53,9.67,15.28,14.07,11.34,8.68,23.07,17.65,23.07,36.03s-11.73,27.35-23.07,36.03c-5.75,4.4-11.32,8.66-15.27,14.07v17.58h45.03c-2.01-10.06,1.6-18.53,5.74-28.24Z"/>
  </g>
  <g>
    <path class="cls-4" d="M926.94,280.46c-.5,2.36-1.43,4.51-2.78,6.4-1.35,1.88-3.03,3.37-4.99,4.45-1.95,1.07-4.11,1.61-6.41,1.61-2.6,0-5.03-.72-7.23-2.13-2.22-1.42-4.01-3.38-5.32-5.81-1.31-2.44-1.98-5.16-1.98-8.09s.67-5.69,1.98-8.19c1.31-2.49,3.11-4.51,5.33-5.99,2.2-1.47,4.63-2.21,7.22-2.21,3.01,0,5.79.97,8.25,2.9,2.49,1.94,4.29,4.44,5.36,7.45l.18.5h4.91l-.31-.97c-.86-2.75-2.2-5.26-3.97-7.44-1.78-2.19-3.92-3.93-6.38-5.17-2.47-1.25-5.18-1.88-8.04-1.88-3.53,0-6.79.95-9.69,2.82-2.89,1.86-5.21,4.42-6.88,7.62-1.67,3.19-2.51,6.74-2.51,10.56s.85,7.12,2.51,10.27c1.67,3.16,4,5.7,6.91,7.56,2.92,1.87,6.17,2.81,9.66,2.81,3.07,0,5.97-.74,8.63-2.19,2.65-1.45,4.89-3.47,6.67-6.01,1.77-2.54,2.94-5.43,3.48-8.6l.15-.88h-4.61l-.12.6Z"/>
    <rect class="cls-4" x="935.31" y="255.91" width="4.73" height="41.64"/>
    <path class="cls-4" d="M949.21,270.88h19.53v5.27h-13.63c-1.92,0-3.73.49-5.38,1.45-1.64.96-2.97,2.27-3.95,3.88-.99,1.63-1.49,3.39-1.49,5.24s.5,3.74,1.48,5.39c.98,1.64,2.31,2.97,3.94,3.94,1.65.98,3.46,1.48,5.39,1.48,3.03,0,5.89-.71,8.5-2.09,1.96-1.04,3.67-2.38,5.13-4v6.1h4.74v-31.45h-24.26v4.79ZM968.42,280.95c-.12,2-.71,3.88-1.75,5.6-1.18,1.93-2.8,3.48-4.81,4.59-2.01,1.11-4.28,1.67-6.74,1.67-1.76,0-3.18-.56-4.32-1.72-1.14-1.16-1.7-2.59-1.7-4.36,0-1.6.56-2.94,1.72-4.08,1.16-1.15,2.57-1.7,4.29-1.7h13.31Z"/>
    <path class="cls-4" d="M1002.65,270.53c-1.1-1.15-2.36-2.11-3.77-2.88-2.04-1.11-4.23-1.68-6.5-1.68-2.65,0-5.13.72-7.38,2.15-2.24,1.42-4.03,3.37-5.32,5.79-1.29,2.41-1.95,5.07-1.95,7.9s.66,5.48,1.95,7.87c1.29,2.4,3.08,4.34,5.32,5.76,2.25,1.43,4.73,2.15,7.38,2.15,2.27,0,4.46-.57,6.5-1.68,1.41-.77,2.67-1.74,3.77-2.88v4.44h4.67v-41.58h-4.67v14.63ZM1001.03,276.21c.91,1.7,1.38,3.58,1.38,5.61s-.46,3.91-1.38,5.61c-.91,1.69-2.16,3.05-3.7,4.04-1.53.97-3.2,1.47-4.96,1.47s-3.48-.49-4.98-1.47c-1.52-.98-2.76-2.34-3.67-4.04-.91-1.7-1.38-3.59-1.38-5.61s.46-3.91,1.38-5.61c.91-1.7,2.15-3.07,3.68-4.07,1.5-.99,3.18-1.49,4.98-1.49s3.43.5,4.95,1.5c1.54,1.01,2.79,2.37,3.7,4.07Z"/>
    <polygon class="cls-4" points="1061.22 281.52 1074.38 266.09 1068.15 266.09 1058.08 277.85 1048 266.09 1041.71 266.09 1054.93 281.52 1041.38 297.46 1047.52 297.55 1058.07 285.13 1068.57 297.54 1074.79 297.54 1061.22 281.52"/>
    <path class="cls-4" d="M1035.67,267.54c-1.65-.98-3.46-1.48-5.39-1.48-3.03,0-5.89.71-8.5,2.09-2.74,1.45-4.47,2.88-6.17,5.08-2.15,2.78-3.41,6.33-3.54,9.99-.14,3.99-.15,13.44-.15,13.54v.75s24.26,0,24.26,0v-4.79h-19.53v-5.27h13.63c1.92,0,3.73-.49,5.38-1.45,1.64-.96,2.97-2.27,3.95-3.88.99-1.63,1.49-3.39,1.49-5.24s-.5-3.74-1.48-5.39c-.98-1.64-2.31-2.97-3.94-3.94ZM1036.31,276.87c0,1.6-.56,2.94-1.72,4.08-1.16,1.15-2.57,1.7-4.29,1.7h-13.31c.12-2,.71-3.88,1.75-5.6,1.18-1.93,2.8-3.48,4.81-4.59,2.01-1.11,4.28-1.67,6.74-1.67,1.76,0,3.18.56,4.32,1.72,1.14,1.16,1.7,2.59,1.7,4.36Z"/>
  </g>
  <g>
    <g>
      <path class="cls-4" d="M987.55,733.16c-5.59-13.1-12.54-29.4-12.54-52.27h0c0-22.88,6.95-39.18,12.54-52.27,5.46-12.8,9.77-22.91,6.62-34.8l-.71-2.33h-43.79l-.75,2.45c-3.12,11.77,1.19,21.88,6.65,34.68,5.59,13.1,12.54,29.4,12.54,52.27h0c0,22.88-6.95,39.18-12.54,52.27-5.35,12.56-9.59,22.53-6.77,34.13h45.53c2.84-11.54-1.4-21.53-6.78-34.13Z"/>
      <path class="cls-4" d="M1039.62,726.18c-14.73-11.27-29.96-22.92-29.96-46.79s15.23-35.53,29.96-46.8c7.47-5.71,14.71-11.25,19.84-18.27v-22.84h-23.83c0,14.84-8.75,27.38-18.01,40.66-9.88,14.17-20.09,28.81-20.09,47.25s10.21,33.08,20.09,47.24c9.26,13.28,18,25.82,18,40.65h-6.49c0-12.79-8.18-24.52-16.84-36.94-9.96-14.29-21.26-30.48-21.26-50.96s11.29-36.67,21.26-50.96c8.66-12.42,16.84-24.15,16.84-36.95h-28.9l.17.55c3.76,14.17-1.17,25.74-6.89,39.13-5.63,13.21-12.02,28.18-12.02,49.72,0,21.54,6.39,36.52,12.02,49.72,5.39,12.64,10.08,23.66,7.46,36.68h58.48v-22.83c-5.13-7.02-12.37-12.56-19.84-18.27Z"/>
      <path class="cls-4" d="M1037.37,679.44c0,13.01,9.6,23.79,22.09,25.7v-51.4c-12.49,1.91-22.09,12.69-22.09,25.7Z"/>
      <path class="cls-4" d="M905.74,679.44c0-13.01-9.6-23.79-22.09-25.7v51.4c12.49-1.91,22.09-12.69,22.09-25.7Z"/>
      <path class="cls-4" d="M1043.56,637.75c-14.1,10.78-27.41,20.97-27.41,41.64s13.32,30.85,27.41,41.64c5.5,4.21,11.08,8.48,15.89,13.41v-22.71c-16.08-1.95-28.58-15.68-28.58-32.28s12.5-30.33,28.58-32.28v-22.83c-4.81,4.94-10.39,9.21-15.89,13.42Z"/>
      <path class="cls-4" d="M899.54,721.02c14.1-10.78,27.41-20.97,27.41-41.64s-13.31-30.85-27.41-41.64c-5.51-4.21-11.08-8.48-15.89-13.42v22.83c16.08,1.95,28.58,15.68,28.58,32.28s-12.5,30.33-28.58,32.28v22.71c4.81-4.94,10.39-9.2,15.89-13.41Z"/>
      <path class="cls-4" d="M949.59,730.61c5.63-13.21,12.02-28.18,12.02-49.72,0-21.54-6.39-36.52-12.02-49.72-5.71-13.39-10.64-24.96-6.92-39.01l.2-.67h-28.9c0,12.8,8.18,24.53,16.84,36.95,9.96,14.29,21.26,30.49,21.26,50.96s-11.29,36.67-21.26,50.96c-8.66,12.42-16.84,24.14-16.84,36.94h-6.49c0-14.83,8.74-27.38,18-40.65,9.88-14.16,20.09-28.81,20.09-47.24s-10.21-33.08-20.09-47.25c-9.26-13.28-18.01-25.82-18.01-40.66h-23.83v22.84c5.13,7.02,12.37,12.56,19.84,18.27,14.73,11.27,29.96,22.92,29.96,46.8s-15.23,35.53-29.96,46.79c-7.46,5.71-14.71,11.25-19.84,18.27v22.83h58.48c-2.61-13.07,2.07-24.06,7.45-36.68Z"/>
    </g>
    <g>
      <path class="cls-4" d="M1279.82,692.92c-1.81,8.61-5.22,16.47-10.15,23.35-4.91,6.85-11.05,12.31-18.22,16.25-7.13,3.91-15,5.89-23.39,5.89-9.49,0-18.37-2.61-26.4-7.76-8.09-5.19-14.62-12.32-19.41-21.19-4.79-8.89-7.21-18.82-7.21-29.53s2.43-20.77,7.22-29.88c4.8-9.1,11.34-16.45,19.44-21.85,8.03-5.35,16.89-8.07,26.36-8.07,10.98,0,21.11,3.56,30.12,10.57,9.08,7.07,15.66,16.22,19.55,27.17l.65,1.82h17.91l-1.12-3.56c-3.15-10.05-8.03-19.18-14.48-27.14-6.48-7.99-14.32-14.33-23.3-18.87-9.02-4.55-18.89-6.85-29.33-6.85-12.87,0-24.77,3.46-35.37,10.28-10.55,6.78-19,16.14-25.1,27.82-6.08,11.64-9.17,24.61-9.17,38.55s3.09,25.97,9.17,37.47c6.1,11.52,14.58,20.8,25.22,27.59,10.67,6.81,22.54,10.27,35.25,10.27,11.21,0,21.8-2.69,31.48-7.99,9.66-5.28,17.83-12.66,24.33-21.93,6.47-9.27,10.74-19.83,12.7-31.4l.54-3.19h-16.83l-.46,2.18Z"/>
      <rect class="cls-4" x="1310.36" y="603.29" width="17.28" height="151.97"/>
      <path class="cls-4" d="M1361.09,657.96h71.27v19.23h-49.73c-7.02,0-13.62,1.78-19.63,5.29-5.98,3.5-10.83,8.27-14.41,14.18-3.6,5.95-5.42,12.38-5.42,19.13s1.82,13.65,5.41,19.66c3.57,5.98,8.42,10.82,14.4,14.39,6.01,3.59,12.62,5.42,19.66,5.42,11.05,0,21.49-2.57,31.02-7.65,7.14-3.79,13.41-8.69,18.72-14.6v22.25h17.28v-114.8h-88.55v17.5ZM1431.19,694.69c-.43,7.31-2.58,14.17-6.4,20.44-4.32,7.06-10.23,12.69-17.57,16.74-7.35,4.05-15.62,6.11-24.59,6.11-6.44,0-11.59-2.06-15.76-6.29-4.17-4.24-6.21-9.44-6.21-15.9,0-5.85,2.06-10.72,6.29-14.89,4.24-4.18,9.37-6.21,15.67-6.21h48.56Z"/>
      <path class="cls-4" d="M1556.12,656.67c-4.01-4.18-8.63-7.71-13.77-10.52-7.45-4.06-15.43-6.12-23.73-6.12-9.67,0-18.73,2.64-26.94,7.86-8.16,5.18-14.69,12.29-19.42,21.13-4.72,8.81-7.1,18.51-7.1,28.84s2.39,20,7.11,28.74c4.72,8.77,11.25,15.84,19.41,21.02,8.2,5.22,17.27,7.86,26.94,7.86,8.3,0,16.28-2.06,23.73-6.13,5.14-2.81,9.75-6.34,13.77-10.52v16.21h17.06v-151.75h-17.06v53.38ZM1550.21,677.4c3.34,6.2,5.03,13.08,5.03,20.46s-1.69,14.26-5.03,20.46c-3.33,6.19-7.87,11.14-13.49,14.73-5.57,3.56-11.66,5.36-18.1,5.36s-12.7-1.8-18.19-5.35c-5.56-3.59-10.06-8.55-13.4-14.74-3.34-6.2-5.03-13.09-5.03-20.46s1.69-14.26,5.03-20.46c3.34-6.19,7.85-11.19,13.42-14.86,5.49-3.62,11.6-5.45,18.17-5.45s12.51,1.84,18.08,5.46c5.63,3.67,10.18,8.67,13.52,14.85Z"/>
      <polygon class="cls-4" points="1769.88 696.76 1817.91 640.46 1795.2 640.46 1758.42 683.37 1721.63 640.46 1698.68 640.46 1746.95 696.76 1697.47 754.95 1719.87 755.27 1758.41 709.95 1796.72 755.25 1819.42 755.25 1769.88 696.76"/>
      <path class="cls-4" d="M1676.66,645.76c-6.01-3.59-12.62-5.41-19.66-5.41-11.05,0-21.49,2.57-31.02,7.65-10,5.31-16.31,10.51-22.53,18.55-7.86,10.15-12.44,23.1-12.92,36.46-.52,14.55-.55,49.05-.55,49.4v2.74s88.55,0,88.55,0v-17.5h-71.27v-19.23h49.73c7.02,0,13.62-1.78,19.63-5.29,5.98-3.5,10.83-8.27,14.41-14.18,3.6-5.95,5.42-12.38,5.42-19.13s-1.82-13.64-5.41-19.66c-3.57-5.98-8.42-10.82-14.4-14.39ZM1678.97,679.81c0,5.85-2.06,10.72-6.29,14.89-4.24,4.18-9.37,6.21-15.67,6.21h-48.56c.43-7.31,2.58-14.17,6.4-20.43,4.32-7.06,10.23-12.69,17.57-16.74,7.35-4.05,15.62-6.11,24.59-6.11,6.44,0,11.59,2.06,15.76,6.29,4.17,4.24,6.21,9.44,6.21,15.9Z"/>
    </g>
  </g>
  <g>
    <g>
      <path class="cls-1" d="M987.55,1200.95c-5.59-13.1-12.54-29.4-12.54-52.27h0c0-22.88,6.95-39.18,12.54-52.27,5.46-12.8,9.77-22.91,6.62-34.8l-.71-2.33h-43.79l-.75,2.45c-3.12,11.77,1.19,21.88,6.65,34.68,5.59,13.1,12.54,29.4,12.54,52.27h0c0,22.88-6.95,39.18-12.54,52.27-5.35,12.56-9.59,22.53-6.77,34.13h45.53c2.84-11.54-1.4-21.53-6.78-34.13Z"/>
      <path class="cls-1" d="M1039.62,1193.98c-14.73-11.27-29.96-22.92-29.96-46.79s15.23-35.53,29.96-46.8c7.47-5.71,14.71-11.25,19.84-18.27v-22.84h-23.83c0,14.84-8.75,27.38-18.01,40.66-9.88,14.17-20.09,28.81-20.09,47.25s10.21,33.08,20.09,47.24c9.26,13.28,18,25.82,18,40.65h-6.49c0-12.79-8.18-24.52-16.84-36.94-9.96-14.29-21.26-30.48-21.26-50.96s11.29-36.67,21.26-50.96c8.66-12.42,16.84-24.15,16.84-36.95h-28.9l.17.55c3.76,14.17-1.17,25.74-6.89,39.13-5.63,13.21-12.02,28.18-12.02,49.72,0,21.54,6.39,36.52,12.02,49.72,5.39,12.64,10.08,23.66,7.46,36.68h58.48v-22.83c-5.13-7.02-12.37-12.56-19.84-18.27Z"/>
      <path class="cls-1" d="M1037.37,1147.24c0,13.01,9.6,23.79,22.09,25.7v-51.4c-12.49,1.91-22.09,12.69-22.09,25.7Z"/>
      <path class="cls-1" d="M905.74,1147.24c0-13.01-9.6-23.79-22.09-25.7v51.4c12.49-1.91,22.09-12.69,22.09-25.7Z"/>
      <path class="cls-1" d="M1043.56,1105.55c-14.1,10.78-27.41,20.97-27.41,41.64s13.32,30.85,27.41,41.64c5.5,4.21,11.08,8.48,15.89,13.41v-22.71c-16.08-1.95-28.58-15.68-28.58-32.28s12.5-30.33,28.58-32.28v-22.83c-4.81,4.94-10.39,9.21-15.89,13.42Z"/>
      <path class="cls-1" d="M899.54,1188.82c14.1-10.78,27.41-20.97,27.41-41.64s-13.31-30.85-27.41-41.64c-5.51-4.21-11.08-8.48-15.89-13.42v22.83c16.08,1.95,28.58,15.68,28.58,32.28s-12.5,30.33-28.58,32.28v22.71c4.81-4.94,10.39-9.2,15.89-13.41Z"/>
      <path class="cls-1" d="M949.59,1198.41c5.63-13.21,12.02-28.18,12.02-49.72,0-21.54-6.39-36.52-12.02-49.72-5.71-13.39-10.64-24.96-6.92-39.01l.2-.67h-28.9c0,12.8,8.18,24.53,16.84,36.95,9.96,14.29,21.26,30.49,21.26,50.96s-11.29,36.67-21.26,50.96c-8.66,12.42-16.84,24.14-16.84,36.94h-6.49c0-14.83,8.74-27.38,18-40.65,9.88-14.16,20.09-28.81,20.09-47.24s-10.21-33.08-20.09-47.25c-9.26-13.28-18.01-25.82-18.01-40.66h-23.83v22.84c5.13,7.02,12.37,12.56,19.84,18.27,14.73,11.27,29.96,22.92,29.96,46.8s-15.23,35.53-29.96,46.79c-7.46,5.71-14.71,11.25-19.84,18.27v22.83h58.48c-2.61-13.07,2.07-24.06,7.45-36.68Z"/>
    </g>
    <g>
      <path class="cls-1" d="M1279.82,1160.72c-1.81,8.61-5.22,16.47-10.15,23.35-4.91,6.85-11.05,12.31-18.22,16.25-7.13,3.91-15,5.89-23.39,5.89-9.49,0-18.37-2.61-26.4-7.76-8.09-5.19-14.62-12.32-19.41-21.19-4.79-8.89-7.21-18.82-7.21-29.53s2.43-20.77,7.22-29.88c4.8-9.1,11.34-16.45,19.44-21.85,8.03-5.35,16.89-8.07,26.36-8.07,10.98,0,21.11,3.56,30.12,10.57,9.08,7.07,15.66,16.22,19.55,27.17l.65,1.82h17.91l-1.12-3.56c-3.15-10.05-8.03-19.18-14.48-27.14-6.48-7.99-14.32-14.33-23.3-18.87-9.02-4.55-18.89-6.85-29.33-6.85-12.87,0-24.77,3.46-35.37,10.28-10.55,6.78-19,16.14-25.1,27.82-6.08,11.64-9.17,24.61-9.17,38.55s3.09,25.97,9.17,37.47c6.1,11.52,14.58,20.8,25.22,27.59,10.67,6.81,22.54,10.27,35.25,10.27,11.21,0,21.8-2.69,31.48-7.99,9.66-5.28,17.83-12.66,24.33-21.93,6.47-9.27,10.74-19.83,12.7-31.4l.54-3.19h-16.83l-.46,2.18Z"/>
      <rect class="cls-1" x="1310.36" y="1071.09" width="17.28" height="151.97"/>
      <path class="cls-1" d="M1361.09,1125.76h71.27v19.23h-49.73c-7.02,0-13.62,1.78-19.63,5.29-5.98,3.5-10.83,8.27-14.41,14.18-3.6,5.95-5.42,12.38-5.42,19.13s1.82,13.65,5.41,19.66c3.57,5.98,8.42,10.82,14.4,14.39,6.01,3.59,12.62,5.42,19.66,5.42,11.05,0,21.49-2.57,31.02-7.65,7.14-3.79,13.41-8.69,18.72-14.6v22.25h17.28v-114.8h-88.55v17.5ZM1431.19,1162.49c-.43,7.31-2.58,14.17-6.4,20.44-4.32,7.06-10.23,12.69-17.57,16.74-7.35,4.05-15.62,6.11-24.59,6.11-6.44,0-11.59-2.06-15.76-6.29-4.17-4.24-6.21-9.44-6.21-15.9,0-5.85,2.06-10.72,6.29-14.89,4.24-4.18,9.37-6.21,15.67-6.21h48.56Z"/>
      <path class="cls-1" d="M1556.12,1124.47c-4.01-4.18-8.63-7.71-13.77-10.52-7.45-4.06-15.43-6.12-23.73-6.12-9.67,0-18.73,2.64-26.94,7.86-8.16,5.18-14.69,12.29-19.42,21.13-4.72,8.81-7.1,18.51-7.1,28.84s2.39,20,7.11,28.74c4.72,8.77,11.25,15.84,19.41,21.02,8.2,5.22,17.27,7.86,26.94,7.86,8.3,0,16.28-2.06,23.73-6.13,5.14-2.81,9.75-6.34,13.77-10.52v16.21h17.06v-151.75h-17.06v53.38ZM1550.21,1145.2c3.34,6.2,5.03,13.08,5.03,20.46s-1.69,14.26-5.03,20.46c-3.33,6.19-7.87,11.14-13.49,14.73-5.57,3.56-11.66,5.36-18.1,5.36s-12.7-1.8-18.19-5.35c-5.56-3.59-10.06-8.55-13.4-14.74-3.34-6.2-5.03-13.09-5.03-20.46s1.69-14.26,5.03-20.46c3.34-6.19,7.85-11.19,13.42-14.86,5.49-3.62,11.6-5.45,18.17-5.45s12.51,1.84,18.08,5.46c5.63,3.67,10.18,8.67,13.52,14.85Z"/>
      <polygon class="cls-1" points="1769.88 1164.56 1817.91 1108.26 1795.2 1108.26 1758.42 1151.17 1721.63 1108.26 1698.68 1108.26 1746.95 1164.56 1697.47 1222.75 1719.87 1223.07 1758.41 1177.75 1796.72 1223.05 1819.42 1223.05 1769.88 1164.56"/>
      <path class="cls-1" d="M1676.66,1113.56c-6.01-3.59-12.62-5.41-19.66-5.41-11.05,0-21.49,2.57-31.02,7.65-10,5.31-16.31,10.51-22.53,18.55-7.86,10.15-12.44,23.1-12.92,36.46-.52,14.55-.55,49.05-.55,49.4v2.74s88.55,0,88.55,0v-17.5h-71.27v-19.23h49.73c7.02,0,13.62-1.78,19.63-5.29,5.98-3.5,10.83-8.27,14.41-14.18,3.6-5.95,5.42-12.38,5.42-19.13s-1.82-13.64-5.41-19.66c-3.57-5.98-8.42-10.82-14.4-14.39ZM1678.97,1147.61c0,5.85-2.06,10.72-6.29,14.89-4.24,4.18-9.37,6.21-15.67,6.21h-48.56c.43-7.31,2.58-14.17,6.4-20.43,4.32-7.06,10.23-12.69,17.57-16.74,7.35-4.05,15.62-6.11,24.59-6.11,6.44,0,11.59,2.06,15.76,6.29,4.17,4.24,6.21,9.44,6.21,15.9Z"/>
    </g>
  </g>
  <g>
    <g>
      <path class="cls-2" d="M987.55,1566.08c-5.59-13.1-12.54-29.4-12.54-52.27h0c0-22.88,6.95-39.18,12.54-52.27,5.46-12.8,9.77-22.91,6.62-34.8l-.71-2.33h-43.79l-.75,2.45c-3.12,11.77,1.19,21.88,6.65,34.68,5.59,13.1,12.54,29.4,12.54,52.27h0c0,22.88-6.95,39.18-12.54,52.27-5.35,12.56-9.59,22.53-6.77,34.13h45.53c2.84-11.54-1.4-21.53-6.78-34.13Z"/>
      <path class="cls-2" d="M1039.62,1559.11c-14.73-11.27-29.96-22.92-29.96-46.79s15.23-35.53,29.96-46.8c7.47-5.71,14.71-11.25,19.84-18.27v-22.84h-23.83c0,14.84-8.75,27.38-18.01,40.66-9.88,14.17-20.09,28.81-20.09,47.25s10.21,33.08,20.09,47.24c9.26,13.28,18,25.82,18,40.65h-6.49c0-12.79-8.18-24.52-16.84-36.94-9.96-14.29-21.26-30.48-21.26-50.96s11.29-36.67,21.26-50.96c8.66-12.42,16.84-24.15,16.84-36.95h-28.9l.17.55c3.76,14.17-1.17,25.74-6.89,39.13-5.63,13.21-12.02,28.18-12.02,49.72,0,21.54,6.39,36.52,12.02,49.72,5.39,12.64,10.08,23.66,7.46,36.68h58.48v-22.83c-5.13-7.02-12.37-12.56-19.84-18.27Z"/>
      <path class="cls-2" d="M1037.37,1512.37c0,13.01,9.6,23.79,22.09,25.7v-51.4c-12.49,1.91-22.09,12.69-22.09,25.7Z"/>
      <path class="cls-2" d="M905.74,1512.37c0-13.01-9.6-23.79-22.09-25.7v51.4c12.49-1.91,22.09-12.69,22.09-25.7Z"/>
      <path class="cls-2" d="M1043.56,1470.67c-14.1,10.78-27.41,20.97-27.41,41.64s13.32,30.85,27.41,41.64c5.5,4.21,11.08,8.48,15.89,13.41v-22.71c-16.08-1.95-28.58-15.68-28.58-32.28s12.5-30.33,28.58-32.28v-22.83c-4.81,4.94-10.39,9.21-15.89,13.42Z"/>
      <path class="cls-2" d="M899.54,1553.95c14.1-10.78,27.41-20.97,27.41-41.64s-13.31-30.85-27.41-41.64c-5.51-4.21-11.08-8.48-15.89-13.42v22.83c16.08,1.95,28.58,15.68,28.58,32.28s-12.5,30.33-28.58,32.28v22.71c4.81-4.94,10.39-9.2,15.89-13.41Z"/>
      <path class="cls-2" d="M949.59,1563.53c5.63-13.21,12.02-28.18,12.02-49.72,0-21.54-6.39-36.52-12.02-49.72-5.71-13.39-10.64-24.96-6.92-39.01l.2-.67h-28.9c0,12.8,8.18,24.53,16.84,36.95,9.96,14.29,21.26,30.49,21.26,50.96s-11.29,36.67-21.26,50.96c-8.66,12.42-16.84,24.14-16.84,36.94h-6.49c0-14.83,8.74-27.38,18-40.65,9.88-14.16,20.09-28.81,20.09-47.24s-10.21-33.08-20.09-47.25c-9.26-13.28-18.01-25.82-18.01-40.66h-23.83v22.84c5.13,7.02,12.37,12.56,19.84,18.27,14.73,11.27,29.96,22.92,29.96,46.8s-15.23,35.53-29.96,46.79c-7.46,5.71-14.71,11.25-19.84,18.27v22.83h58.48c-2.61-13.07,2.07-24.06,7.45-36.68Z"/>
    </g>
    <g>
      <path class="cls-2" d="M1279.82,1525.85c-1.81,8.61-5.22,16.47-10.15,23.35-4.91,6.85-11.05,12.31-18.22,16.25-7.13,3.91-15,5.89-23.39,5.89-9.49,0-18.37-2.61-26.4-7.76-8.09-5.19-14.62-12.32-19.41-21.19-4.79-8.89-7.21-18.82-7.21-29.53s2.43-20.77,7.22-29.88c4.8-9.1,11.34-16.45,19.44-21.85,8.03-5.35,16.89-8.07,26.36-8.07,10.98,0,21.11,3.56,30.12,10.57,9.08,7.07,15.66,16.22,19.55,27.17l.65,1.82h17.91l-1.12-3.56c-3.15-10.05-8.03-19.18-14.48-27.14-6.48-7.99-14.32-14.33-23.3-18.87-9.02-4.55-18.89-6.85-29.33-6.85-12.87,0-24.77,3.46-35.37,10.28-10.55,6.78-19,16.14-25.1,27.82-6.08,11.64-9.17,24.61-9.17,38.55s3.09,25.97,9.17,37.47c6.1,11.52,14.58,20.8,25.22,27.59,10.67,6.81,22.54,10.27,35.25,10.27,11.21,0,21.8-2.69,31.48-7.99,9.66-5.28,17.83-12.66,24.33-21.93,6.47-9.27,10.74-19.83,12.7-31.4l.54-3.19h-16.83l-.46,2.18Z"/>
      <rect class="cls-2" x="1310.36" y="1436.21" width="17.28" height="151.97"/>
      <path class="cls-2" d="M1361.09,1490.88h71.27v19.23h-49.73c-7.02,0-13.62,1.78-19.63,5.29-5.98,3.5-10.83,8.27-14.41,14.18-3.6,5.95-5.42,12.38-5.42,19.13s1.82,13.65,5.41,19.66c3.57,5.98,8.42,10.82,14.4,14.39,6.01,3.59,12.62,5.42,19.66,5.42,11.05,0,21.49-2.57,31.02-7.65,7.14-3.79,13.41-8.69,18.72-14.6v22.25h17.28v-114.8h-88.55v17.5ZM1431.19,1527.61c-.43,7.31-2.58,14.17-6.4,20.44-4.32,7.06-10.23,12.69-17.57,16.74-7.35,4.05-15.62,6.11-24.59,6.11-6.44,0-11.59-2.06-15.76-6.29-4.17-4.24-6.21-9.44-6.21-15.9,0-5.85,2.06-10.72,6.29-14.89,4.24-4.18,9.37-6.21,15.67-6.21h48.56Z"/>
      <path class="cls-2" d="M1556.12,1489.6c-4.01-4.18-8.63-7.71-13.77-10.52-7.45-4.06-15.43-6.12-23.73-6.12-9.67,0-18.73,2.64-26.94,7.86-8.16,5.18-14.69,12.29-19.42,21.13-4.72,8.81-7.1,18.51-7.1,28.84s2.39,20,7.11,28.74c4.72,8.77,11.25,15.84,19.41,21.02,8.2,5.22,17.27,7.86,26.94,7.86,8.3,0,16.28-2.06,23.73-6.13,5.14-2.81,9.75-6.34,13.77-10.52v16.21h17.06v-151.75h-17.06v53.38ZM1550.21,1510.32c3.34,6.2,5.03,13.08,5.03,20.46s-1.69,14.26-5.03,20.46c-3.33,6.19-7.87,11.14-13.49,14.73-5.57,3.56-11.66,5.36-18.1,5.36s-12.7-1.8-18.19-5.35c-5.56-3.59-10.06-8.55-13.4-14.74-3.34-6.2-5.03-13.09-5.03-20.46s1.69-14.26,5.03-20.46c3.34-6.19,7.85-11.19,13.42-14.86,5.49-3.62,11.6-5.45,18.17-5.45s12.51,1.84,18.08,5.46c5.63,3.67,10.18,8.67,13.52,14.85Z"/>
      <polygon class="cls-2" points="1769.88 1529.69 1817.91 1473.38 1795.2 1473.38 1758.42 1516.3 1721.63 1473.38 1698.68 1473.38 1746.95 1529.69 1697.47 1587.88 1719.87 1588.2 1758.41 1542.88 1796.72 1588.18 1819.42 1588.18 1769.88 1529.69"/>
      <path class="cls-2" d="M1676.66,1478.69c-6.01-3.59-12.62-5.41-19.66-5.41-11.05,0-21.49,2.57-31.02,7.65-10,5.31-16.31,10.51-22.53,18.55-7.86,10.15-12.44,23.1-12.92,36.46-.52,14.55-.55,49.05-.55,49.4v2.74s88.55,0,88.55,0v-17.5h-71.27v-19.23h49.73c7.02,0,13.62-1.78,19.63-5.29,5.98-3.5,10.83-8.27,14.41-14.18,3.6-5.95,5.42-12.38,5.42-19.13s-1.82-13.64-5.41-19.66c-3.57-5.98-8.42-10.82-14.4-14.39ZM1678.97,1512.74c0,5.85-2.06,10.72-6.29,14.89-4.24,4.18-9.37,6.21-15.67,6.21h-48.56c.43-7.31,2.58-14.17,6.4-20.43,4.32-7.06,10.23-12.69,17.57-16.74,7.35-4.05,15.62-6.11,24.59-6.11,6.44,0,11.59,2.06,15.76,6.29,4.17,4.24,6.21,9.44,6.21,15.9Z"/>
    </g>
  </g>
  <g>
    <g>
      <path class="cls-3" d="M987.55,1950.82c-5.59-13.1-12.54-29.4-12.54-52.27h0c0-22.88,6.95-39.18,12.54-52.27,5.46-12.8,9.77-22.91,6.62-34.8l-.71-2.33h-43.79l-.75,2.45c-3.12,11.77,1.19,21.88,6.65,34.68,5.59,13.1,12.54,29.4,12.54,52.27h0c0,22.88-6.95,39.18-12.54,52.27-5.35,12.56-9.59,22.53-6.77,34.13h45.53c2.84-11.54-1.4-21.53-6.78-34.13Z"/>
      <path class="cls-3" d="M1039.62,1943.85c-14.73-11.27-29.96-22.92-29.96-46.79s15.23-35.53,29.96-46.8c7.47-5.71,14.71-11.25,19.84-18.27v-22.84h-23.83c0,14.84-8.75,27.38-18.01,40.66-9.88,14.17-20.09,28.81-20.09,47.25s10.21,33.08,20.09,47.24c9.26,13.28,18,25.82,18,40.65h-6.49c0-12.79-8.18-24.52-16.84-36.94-9.96-14.29-21.26-30.48-21.26-50.96s11.29-36.67,21.26-50.96c8.66-12.42,16.84-24.15,16.84-36.95h-28.9l.17.55c3.76,14.17-1.17,25.74-6.89,39.13-5.63,13.21-12.02,28.18-12.02,49.72,0,21.54,6.39,36.52,12.02,49.72,5.39,12.64,10.08,23.66,7.46,36.68h58.48v-22.83c-5.13-7.02-12.37-12.56-19.84-18.27Z"/>
      <path class="cls-3" d="M1037.37,1897.11c0,13.01,9.6,23.79,22.09,25.7v-51.4c-12.49,1.91-22.09,12.69-22.09,25.7Z"/>
      <path class="cls-3" d="M905.74,1897.11c0-13.01-9.6-23.79-22.09-25.7v51.4c12.49-1.91,22.09-12.69,22.09-25.7Z"/>
      <path class="cls-3" d="M1043.56,1855.42c-14.1,10.78-27.41,20.97-27.41,41.64s13.32,30.85,27.41,41.64c5.5,4.21,11.08,8.48,15.89,13.41v-22.71c-16.08-1.95-28.58-15.68-28.58-32.28s12.5-30.33,28.58-32.28v-22.83c-4.81,4.94-10.39,9.21-15.89,13.42Z"/>
      <path class="cls-3" d="M899.54,1938.69c14.1-10.78,27.41-20.97,27.41-41.64s-13.31-30.85-27.41-41.64c-5.51-4.21-11.08-8.48-15.89-13.42v22.83c16.08,1.95,28.58,15.68,28.58,32.28s-12.5,30.33-28.58,32.28v22.71c4.81-4.94,10.39-9.2,15.89-13.41Z"/>
      <path class="cls-3" d="M949.59,1948.28c5.63-13.21,12.02-28.18,12.02-49.72,0-21.54-6.39-36.52-12.02-49.72-5.71-13.39-10.64-24.96-6.92-39.01l.2-.67h-28.9c0,12.8,8.18,24.53,16.84,36.95,9.96,14.29,21.26,30.49,21.26,50.96s-11.29,36.67-21.26,50.96c-8.66,12.42-16.84,24.14-16.84,36.94h-6.49c0-14.83,8.74-27.38,18-40.65,9.88-14.16,20.09-28.81,20.09-47.24s-10.21-33.08-20.09-47.25c-9.26-13.28-18.01-25.82-18.01-40.66h-23.83v22.84c5.13,7.02,12.37,12.56,19.84,18.27,14.73,11.27,29.96,22.92,29.96,46.8s-15.23,35.53-29.96,46.79c-7.46,5.71-14.71,11.25-19.84,18.27v22.83h58.48c-2.61-13.07,2.07-24.06,7.45-36.68Z"/>
    </g>
    <g>
      <path class="cls-3" d="M1279.82,1910.59c-1.81,8.61-5.22,16.47-10.15,23.35-4.91,6.85-11.05,12.31-18.22,16.25-7.13,3.91-15,5.89-23.39,5.89-9.49,0-18.37-2.61-26.4-7.76-8.09-5.19-14.62-12.32-19.41-21.19-4.79-8.89-7.21-18.82-7.21-29.53s2.43-20.77,7.22-29.88c4.8-9.1,11.34-16.45,19.44-21.85,8.03-5.35,16.89-8.07,26.36-8.07,10.98,0,21.11,3.56,30.12,10.57,9.08,7.07,15.66,16.22,19.55,27.17l.65,1.82h17.91l-1.12-3.56c-3.15-10.05-8.03-19.18-14.48-27.14-6.48-7.99-14.32-14.33-23.3-18.87-9.02-4.55-18.89-6.85-29.33-6.85-12.87,0-24.77,3.46-35.37,10.28-10.55,6.78-19,16.14-25.1,27.82-6.08,11.64-9.17,24.61-9.17,38.55s3.09,25.97,9.17,37.47c6.1,11.52,14.58,20.8,25.22,27.59,10.67,6.81,22.54,10.27,35.25,10.27,11.21,0,21.8-2.69,31.48-7.99,9.66-5.28,17.83-12.66,24.33-21.93,6.47-9.27,10.74-19.83,12.7-31.4l.54-3.19h-16.83l-.46,2.18Z"/>
      <rect class="cls-3" x="1310.36" y="1820.95" width="17.28" height="151.97"/>
      <path class="cls-3" d="M1361.09,1875.62h71.27v19.23h-49.73c-7.02,0-13.62,1.78-19.63,5.29-5.98,3.5-10.83,8.27-14.41,14.18-3.6,5.95-5.42,12.38-5.42,19.13s1.82,13.65,5.41,19.66c3.57,5.98,8.42,10.82,14.4,14.39,6.01,3.59,12.62,5.42,19.66,5.42,11.05,0,21.49-2.57,31.02-7.65,7.14-3.79,13.41-8.69,18.72-14.6v22.25h17.28v-114.8h-88.55v17.5ZM1431.19,1912.35c-.43,7.31-2.58,14.17-6.4,20.44-4.32,7.06-10.23,12.69-17.57,16.74-7.35,4.05-15.62,6.11-24.59,6.11-6.44,0-11.59-2.06-15.76-6.29-4.17-4.24-6.21-9.44-6.21-15.9,0-5.85,2.06-10.72,6.29-14.89,4.24-4.18,9.37-6.21,15.67-6.21h48.56Z"/>
      <path class="cls-3" d="M1556.12,1874.34c-4.01-4.18-8.63-7.71-13.77-10.52-7.45-4.06-15.43-6.12-23.73-6.12-9.67,0-18.73,2.64-26.94,7.86-8.16,5.18-14.69,12.29-19.42,21.13-4.72,8.81-7.1,18.51-7.1,28.84s2.39,20,7.11,28.74c4.72,8.77,11.25,15.84,19.41,21.02,8.2,5.22,17.27,7.86,26.94,7.86,8.3,0,16.28-2.06,23.73-6.13,5.14-2.81,9.75-6.34,13.77-10.52v16.21h17.06v-151.75h-17.06v53.38ZM1550.21,1895.06c3.34,6.2,5.03,13.08,5.03,20.46s-1.69,14.26-5.03,20.46c-3.33,6.19-7.87,11.14-13.49,14.73-5.57,3.56-11.66,5.36-18.1,5.36s-12.7-1.8-18.19-5.35c-5.56-3.59-10.06-8.55-13.4-14.74-3.34-6.2-5.03-13.09-5.03-20.46s1.69-14.26,5.03-20.46c3.34-6.19,7.85-11.19,13.42-14.86,5.49-3.62,11.6-5.45,18.17-5.45s12.51,1.84,18.08,5.46c5.63,3.67,10.18,8.67,13.52,14.85Z"/>
      <polygon class="cls-3" points="1769.88 1914.43 1817.91 1858.12 1795.2 1858.12 1758.42 1901.04 1721.63 1858.12 1698.68 1858.12 1746.95 1914.43 1697.47 1972.62 1719.87 1972.94 1758.41 1927.62 1796.72 1972.92 1819.42 1972.92 1769.88 1914.43"/>
      <path class="cls-3" d="M1676.66,1863.43c-6.01-3.59-12.62-5.41-19.66-5.41-11.05,0-21.49,2.57-31.02,7.65-10,5.31-16.31,10.51-22.53,18.55-7.86,10.15-12.44,23.1-12.92,36.46-.52,14.55-.55,49.05-.55,49.4v2.74s88.55,0,88.55,0v-17.5h-71.27v-19.23h49.73c7.02,0,13.62-1.78,19.63-5.29,5.98-3.5,10.83-8.27,14.41-14.18,3.6-5.95,5.42-12.38,5.42-19.13s-1.82-13.64-5.41-19.66c-3.57-5.98-8.42-10.82-14.4-14.39ZM1678.97,1897.48c0,5.85-2.06,10.72-6.29,14.89-4.24,4.18-9.37,6.21-15.67,6.21h-48.56c.43-7.31,2.58-14.17,6.4-20.43,4.32-7.06,10.23-12.69,17.57-16.74,7.35-4.05,15.62-6.11,24.59-6.11,6.44,0,11.59,2.06,15.76,6.29,4.17,4.24,6.21,9.44,6.21,15.9Z"/>
    </g>
  </g>
</svg>